STARTFONT 2.1
COMMENT $XConsortium: luIS24.bdf,v 1.7 94/04/02 16:23:39 gildea Exp $
COMMENT  (c) Copyright Bigelow & Holmes 1986, 1985. Lucida is a registered
COMMENT  trademark of Bigelow & Holmes. See LEGAL NOTICE file for terms 
COMMENT  of the license. 
COMMENT  
COMMENT  Translation to ISO8859-2 by Cub Soft;  Petr.Kolar@vslib.cz
COMMENT  
FONT -B&H-Lucida-Medium-I-Normal-Sans-34-240-100-100-P-192-ISO8859-2
SIZE 24 100 100
FONTBOUNDINGBOX 66 39 -22 -7
STARTPROPERTIES 20
COMMENT Begin LogicalFontDescription
FONTNAME_REGISTRY ""
FOUNDRY "B&H"
FAMILY_NAME "Lucida"
WEIGHT_NAME "Medium"
SLANT "I"
SETWIDTH_NAME "Normal"
ADD_STYLE_NAME "Sans"
PIXEL_SIZE 34
POINT_SIZE 240
RESOLUTION_X 100
RESOLUTION_Y 100
SPACING "P"
AVERAGE_WIDTH 192
CHARSET_REGISTRY "ISO8859"
CHARSET_ENCODING "2"
COMMENT END LogicalFontDescription
FONT_ASCENT 31
FONT_DESCENT 8
DEFAULT_CHAR 0
COPYRIGHT "Copyright Bigelow & Holmes 1986, 1985., Copyright 1996 Cub Soft"
FACE_NAME "Lucida Sans Italic"
ENDPROPERTIES
CHARS 191
STARTCHAR space
ENCODING 32
SWIDTH 316 0
DWIDTH 11 0
BBX 1 1 0 0
BITMAP
00
ENDCHAR
STARTCHAR exclam
ENCODING 33
SWIDTH 193 0
DWIDTH 11 0
BBX 8 25 4 0
BITMAP
07
0f
0f
0e
0e
0e
0e
1c
1c
1c
1c
1c
18
38
38
38
30
30
00
00
00
00
70
f0
e0
ENDCHAR
STARTCHAR quotedbl
ENCODING 34
SWIDTH 361 0
DWIDTH 12 0
BBX 9 8 6 18
BITMAP
e380
e380
e380
e380
e380
e380
e380
e380
ENDCHAR
STARTCHAR numbersign
ENCODING 35
SWIDTH 633 0
DWIDTH 21 0
BBX 21 25 3 0
BITMAP
000c38
001870
001870
0030e0
0030e0
0061c0
0061c0
3ffff8
3ffff8
3ffff8
018300
018600
030600
030c00
060c00
ffffe0
ffffe0
ffffe0
0c3800
187000
187000
30e000
30e000
61c000
e3c000
ENDCHAR
STARTCHAR dollar
ENCODING 36
SWIDTH 633 0
DWIDTH 21 0
BBX 17 30 5 -3
BITMAP
003000
003000
00fe00
03ff80
07ff80
0f6100
1e6000
1c6000
1c4000
1c4000
1cc000
0ec000
0fc000
078000
01e000
01f000
01f800
01bc00
011c00
031c00
031c00
031c00
031c00
423800
fef000
ffe000
7fc000
060000
060000
040000
ENDCHAR
STARTCHAR percent
ENCODING 37
SWIDTH 741 0
DWIDTH 25 0
BBX 26 25 2 0
BITMAP
03e003c0
07f00700
0ff80600
1e380c00
1c181c00
38183800
38387000
3830e000
3871c000
1fe38000
1fe70000
0f8e0000
001c7800
0039fc00
0033fe00
00678e00
00e70600
01c60600
038e0600
070e0600
0e0e0e00
1c0f1c00
3807fc00
7007f800
e003e000
ENDCHAR
STARTCHAR ampersand
ENCODING 38
SWIDTH 701 0
DWIDTH 24 0
BBX 20 25 3 0
BITMAP
001e00
007f80
00ff80
01e3c0
01c1c0
01c180
03c380
01c780
01cf00
01fe00
03f800
0fe000
1ff070
3c7070
787070
f078f0
f038e0
e03de0
e01fc0
f01fc0
f00f80
7c3f00
7fff80
3ff380
0fc3c0
ENDCHAR
STARTCHAR apostrophe
ENCODING 39
SWIDTH 217 0
DWIDTH 7 0
BBX 6 10 5 16
BITMAP
3c
3c
7c
7c
38
38
38
70
f0
e0
ENDCHAR
STARTCHAR parenleft
ENCODING 40
SWIDTH 325 0
DWIDTH 11 0
BBX 11 32 3 -6
BITMAP
0020
0060
00e0
01c0
0380
0700
0600
0e00
1c00
1c00
3800
3800
7800
7000
7000
f000
f000
e000
e000
e000
e000
e000
e000
e000
e000
6000
7000
7000
3800
3c00
1800
0800
ENDCHAR
STARTCHAR parenright
ENCODING 41
SWIDTH 325 0
DWIDTH 11 0
BBX 11 32 1 -6
BITMAP
0200
0300
0380
0380
01c0
01c0
00e0
00e0
00e0
00e0
00e0
00e0
00e0
00e0
00e0
00e0
00e0
01e0
01c0
01c0
0380
0380
0780
0700
0e00
0e00
1c00
3800
7000
e000
c000
8000
ENDCHAR
STARTCHAR asterisk
ENCODING 42
SWIDTH 470 0
DWIDTH 16 0
BBX 13 12 5 13
BITMAP
0380
0300
0300
4308
7278
fdf8
0400
0f00
1b80
7180
71c0
2100
ENDCHAR
STARTCHAR plus
ENCODING 43
SWIDTH 633 0
DWIDTH 21 0
BBX 20 21 3 0
BITMAP
003800
003800
003800
003800
003800
007000
007000
007000
007000
fffff0
fffff0
fffff0
00e000
00e000
00e000
00e000
01c000
01c000
01c000
01c000
01c000
ENDCHAR
STARTCHAR comma
ENCODING 44
SWIDTH 316 0
DWIDTH 11 0
BBX 6 12 2 -7
BITMAP
3c
3c
7c
78
78
18
38
38
30
70
e0
c0
ENDCHAR
STARTCHAR minus
ENCODING 45
SWIDTH 633 0
DWIDTH 21 0
BBX 20 3 3 9
BITMAP
fffff0
fffff0
fffff0
ENDCHAR
STARTCHAR period
ENCODING 46
SWIDTH 316 0
DWIDTH 11 0
BBX 5 4 3 0
BITMAP
78
78
f0
f0
ENDCHAR
STARTCHAR slash
ENCODING 47
SWIDTH 482 0
DWIDTH 16 0
BBX 22 32 0 -6
BITMAP
00001c
000038
000038
000070
0000e0
0000e0
0001c0
0001c0
000380
000700
000700
000e00
000e00
001c00
003800
003800
007000
007000
00e000
01c000
01c000
038000
038000
070000
0e0000
0e0000
1c0000
1c0000
380000
700000
700000
e00000
ENDCHAR
STARTCHAR zero
ENCODING 48
SWIDTH 633 0
DWIDTH 21 0
BBX 18 25 4 0
BITMAP
007c00
01ff00
03ff80
078780
0f03c0
1e01c0
1c01c0
3801c0
3801c0
7801c0
7001c0
7001c0
f003c0
f003c0
e00380
e00380
e00780
e00700
e00f00
f00e00
701c00
787c00
3ff800
3fe000
0f8000
ENDCHAR
STARTCHAR one
ENCODING 49
SWIDTH 633 0
DWIDTH 21 0
BBX 8 25 9 0
BITMAP
7f
7f
7f
0e
0e
0e
0e
1e
1c
1c
1c
1c
3c
38
38
38
38
78
70
70
70
70
f0
e0
e0
ENDCHAR
STARTCHAR two
ENCODING 50
SWIDTH 633 0
DWIDTH 21 0
BBX 19 25 3 0
BITMAP
00fe00
03ff80
07ffc0
0703e0
0401e0
0001e0
0001e0
0001e0
0001c0
0003c0
000780
000f00
001e00
003c00
00f800
01e000
03c000
078000
1e0000
1c0000
380000
780000
fffe00
fffe00
fffe00
ENDCHAR
STARTCHAR three
ENCODING 51
SWIDTH 633 0
DWIDTH 21 0
BBX 17 25 4 0
BITMAP
03fc00
07ff00
07ff80
040f80
000380
000380
000380
000700
000f00
003e00
07f800
07e000
0ff800
007e00
001e00
000e00
000f00
000e00
000e00
001e00
003c00
407c00
fff800
ffe000
7f8000
ENDCHAR
STARTCHAR four
ENCODING 52
SWIDTH 633 0
DWIDTH 21 0
BBX 18 25 3 0
BITMAP
0003c0
0007c0
000f80
001f80
003f80
007b80
007380
00e700
01c700
038700
070700
0f0700
1e0e00
3c0e00
380e00
700e00
ffffc0
ffffc0
ffffc0
001c00
001c00
001c00
003800
003800
003800
ENDCHAR
STARTCHAR five
ENCODING 53
SWIDTH 633 0
DWIDTH 21 0
BBX 18 25 5 0
BITMAP
07ffc0
07ffc0
07ffc0
060000
0e0000
0e0000
0c0000
0c0000
0c0000
1fc000
1ff800
1ffc00
007e00
001e00
000e00
000e00
000e00
000e00
001e00
001e00
003c00
40f800
fff000
ffe000
7f8000
ENDCHAR
STARTCHAR six
ENCODING 54
SWIDTH 633 0
DWIDTH 21 0
BBX 18 25 4 0
BITMAP
003f80
00ffc0
03ffc0
07c0c0
0f0000
1e0000
1c0000
3c0000
380000
79f800
7ffe00
7fff00
fe0f00
f80700
f00780
f00780
e00700
e00700
e00700
f00e00
701e00
783c00
3ff800
1ff000
0fc000
ENDCHAR
STARTCHAR seven
ENCODING 55
SWIDTH 633 0
DWIDTH 21 0
BBX 19 25 5 0
BITMAP
1fffe0
1fffe0
1fffe0
0003c0
0007c0
000f80
001f00
003e00
007c00
00f800
00f000
01e000
03c000
07c000
078000
0f0000
1f0000
1e0000
3c0000
3c0000
780000
780000
700000
f00000
f00000
ENDCHAR
STARTCHAR eight
ENCODING 56
SWIDTH 633 0
DWIDTH 21 0
BBX 18 25 4 0
BITMAP
007e00
01ff00
07ff80
0f83c0
0e01c0
1e01c0
1e0180
1e0380
1e0700
0f1e00
07fc00
07f000
0ff800
1f7c00
3c3e00
780f00
700f00
e00700
e00700
e00f00
f00e00
f83e00
7ffc00
3ff000
0fc000
ENDCHAR
STARTCHAR nine
ENCODING 57
SWIDTH 633 0
DWIDTH 21 0
BBX 18 25 4 0
BITMAP
007c00
01ff00
07ff80
0f8780
0e03c0
1c01c0
3c01c0
3801c0
3801c0
3801c0
3803c0
3c07c0
3e0fc0
1fffc0
0ffb80
07e780
000780
000700
000f00
001e00
003c00
c07800
fff000
ffe000
3f8000
ENDCHAR
STARTCHAR colon
ENCODING 58
SWIDTH 316 0
DWIDTH 11 0
BBX 7 18 4 0
BITMAP
0e
1e
1c
00
00
00
00
00
00
00
00
00
00
00
00
70
f0
e0
ENDCHAR
STARTCHAR semicolon
ENCODING 59
SWIDTH 316 0
DWIDTH 11 0
BBX 8 24 3 -6
BITMAP
07
0f
0e
00
00
00
00
00
00
00
00
00
00
00
00
38
78
78
30
30
30
60
c0
80
ENDCHAR
STARTCHAR less
ENCODING 60
SWIDTH 633 0
DWIDTH 21 0
BBX 22 21 3 0
BITMAP
000004
00001c
00007c
0001f8
0007c0
001f00
007c00
03f000
0fc000
3f0000
fc0000
7e0000
1f8000
07e000
03f000
00fc00
003f00
001f80
0007e0
0001c0
000040
ENDCHAR
STARTCHAR equal
ENCODING 61
SWIDTH 633 0
DWIDTH 21 0
BBX 21 9 2 5
BITMAP
7ffff8
7ffff8
7ffff8
000000
000000
000000
fffff0
fffff0
fffff0
ENDCHAR
STARTCHAR greater
ENCODING 62
SWIDTH 633 0
DWIDTH 21 0
BBX 22 21 1 0
BITMAP
080000
0e0000
1f8000
07c000
03f000
00fc00
003f00
001f80
0007e0
0001f8
0000fc
0003f0
000fc0
003f00
00fc00
03e000
0f8000
3e0000
780000
e00000
800000
ENDCHAR
STARTCHAR question
ENCODING 63
SWIDTH 464 0
DWIDTH 16 0
BBX 14 25 5 0
BITMAP
1fc0
7ff0
7ff8
4078
0038
003c
0038
0038
0070
00f0
01e0
03c0
0700
0e00
1c00
3c00
3800
3800
7800
0000
0000
0000
7000
f000
e000
ENDCHAR
STARTCHAR at
ENCODING 64
SWIDTH 858 0
DWIDTH 29 0
BBX 26 25 4 0
BITMAP
000fe000
007ff800
01fffe00
03f01f00
07800780
0e000380
1c0ff1c0
383fe0c0
307fe0c0
60e060c0
61c0e0c0
c180c0c0
c381c0c0
c302c1c0
c3078380
c39d8780
c3f9ff00
c3f1fc00
61e0f800
70000000
38000000
3e030000
1fff0000
07ff0000
01fc0000
ENDCHAR
STARTCHAR A
ENCODING 65
SWIDTH 687 0
DWIDTH 23 0
BBX 22 25 1 0
BITMAP
000380
0007c0
000fc0
000fc0
001fc0
001dc0
003de0
0039e0
0071e0
0070e0
00e0e0
01e0e0
01c0f0
03c0f0
038070
078070
07fff0
0ffff8
0ffff8
1c0078
3c0078
380038
78003c
70003c
e0003c
ENDCHAR
STARTCHAR B
ENCODING 66
SWIDTH 593 0
DWIDTH 20 0
BBX 18 25 3 0
BITMAP
07fe00
07ff80
0fff80
0f07c0
0f03c0
0e03c0
0e03c0
1e0380
1e0780
1c0f00
1c3e00
1ff800
3ff800
3ffe00
3c3f00
380f00
380700
780780
780780
780700
700f00
703f00
fffe00
fffc00
ffe000
ENDCHAR
STARTCHAR C
ENCODING 67
SWIDTH 679 0
DWIDTH 23 0
BBX 22 25 4 0
BITMAP
001ff0
007ffc
01fffc
03e00c
0fc000
0f0000
1e0000
3e0000
3c0000
780000
780000
700000
f00000
f00000
f00000
f00000
f00000
f00000
f00000
f80000
780040
7e03c0
3fffc0
1fff00
03f800
ENDCHAR
STARTCHAR D
ENCODING 68
SWIDTH 743 0
DWIDTH 25 0
BBX 23 25 3 0
BITMAP
07ffc0
07fff0
0ffff8
0f01fc
0e007c
0e003e
0e001e
1e001e
1e001e
1c001e
1c001e
1c001e
3c001e
3c001c
38003c
38003c
380078
780078
7800f0
7001e0
7003e0
700fc0
ffff80
fffe00
fff000
ENDCHAR
STARTCHAR E
ENCODING 69
SWIDTH 547 0
DWIDTH 19 0
BBX 19 25 3 0
BITMAP
07ffe0
07ffe0
0fffe0
0f0000
0f0000
0f0000
0e0000
1e0000
1e0000
1e0000
1e0000
1ffe00
3ffe00
3ffe00
3c0000
3c0000
380000
780000
780000
780000
700000
700000
fffe00
fffe00
fffe00
ENDCHAR
STARTCHAR F
ENCODING 70
SWIDTH 536 0
DWIDTH 18 0
BBX 19 25 3 0
BITMAP
07ffe0
07ffe0
0fffe0
0f0000
0f0000
0e0000
0e0000
1e0000
1e0000
1e0000
1c0000
1ffe00
3ffe00
3ffc00
3c0000
380000
380000
780000
780000
780000
700000
700000
f00000
f00000
f00000
ENDCHAR
STARTCHAR G
ENCODING 71
SWIDTH 702 0
DWIDTH 24 0
BBX 22 25 4 0
BITMAP
001ff0
007ffc
01fffc
03f00c
0f8000
0f0000
1e0000
3c0000
3c0000
780000
780000
700000
f00000
f00000
f000f0
f000e0
f000e0
f000e0
f001e0
f801e0
7c01c0
7e03c0
3fffc0
1fffc0
03fc00
ENDCHAR
STARTCHAR H
ENCODING 72
SWIDTH 735 0
DWIDTH 25 0
BBX 24 25 3 0
BITMAP
07000f
07000f
0f000f
0f000e
0f000e
0e001e
0e001e
1e001e
1e001c
1e003c
1ffffc
1ffffc
3ffffc
3c0038
3c0038
380078
380078
780078
780070
780070
7000f0
7000f0
f000f0
f000e0
f000e0
ENDCHAR
STARTCHAR I
ENCODING 73
SWIDTH 289 0
DWIDTH 10 0
BBX 8 25 3 0
BITMAP
0f
0f
0f
0e
0e
0e
1e
1e
1c
1c
1c
3c
3c
3c
38
38
38
78
78
70
70
70
f0
f0
f0
ENDCHAR
STARTCHAR J
ENCODING 74
SWIDTH 408 0
DWIDTH 14 0
BBX 16 31 0 -6
BITMAP
000f
000f
000f
000e
000e
001e
001e
001e
001c
001c
001c
003c
003c
003c
0038
0038
0078
0078
0078
0070
0070
0070
00f0
00f0
00e0
00e0
01e0
c3c0
ff80
ff00
fe00
ENDCHAR
STARTCHAR K
ENCODING 75
SWIDTH 635 0
DWIDTH 22 0
BBX 21 25 3 0
BITMAP
070078
0700f0
0f01e0
0f03c0
0e0780
0e0f00
0e1e00
1e3c00
1e7800
1cf000
1de000
1fc000
3fc000
3dc000
38e000
38f000
387000
787800
783c00
781c00
701e00
700f00
f00700
f00780
f003c0
ENDCHAR
STARTCHAR L
ENCODING 76
SWIDTH 545 0
DWIDTH 19 0
BBX 15 25 3 0
BITMAP
0700
0f00
0f00
0f00
0e00
0e00
0e00
1e00
1e00
1c00
1c00
1c00
3c00
3c00
3800
3800
3800
7800
7800
7000
7000
7000
fffe
fffe
fffe
ENDCHAR
STARTCHAR M
ENCODING 77
SWIDTH 828 0
DWIDTH 28 0
BBX 27 25 3 0
BITMAP
07c003e0
07c007e0
0fc007e0
0fc00fc0
0fc00fc0
0fe01dc0
0fe01fc0
1ce03bc0
1ce03b80
1ce07380
1ce06380
1ce0e780
38f1c780
38f1c700
38738700
38738700
38770f00
70770f00
707e0e00
707c0e00
707c0e00
70380e00
e0381e00
e0001c00
e0001c00
ENDCHAR
STARTCHAR N
ENCODING 78
SWIDTH 741 0
DWIDTH 25 0
BBX 24 25 3 0
BITMAP
078007
078007
0f8007
0fc00e
0fc00e
0fe00e
0ee00e
1cf00e
1cf01c
1c781c
1c781c
1c381c
383c1c
381c38
381e38
381e38
380f38
700f38
700770
7007f0
7003f0
7003f0
e001f0
e001e0
e001e0
ENDCHAR
STARTCHAR O
ENCODING 79
SWIDTH 777 0
DWIDTH 26 0
BBX 24 25 4 0
BITMAP
001fc0
007ff8
01fffc
03f07e
07c01e
0f001e
1e000f
3c000f
3c000f
78000f
78000f
70000f
f0000f
f0000e
f0001e
f0001e
f0003c
f0003c
f00078
7800f0
7c03e0
7e0fc0
3fff80
1ffe00
03f800
ENDCHAR
STARTCHAR P
ENCODING 80
SWIDTH 575 0
DWIDTH 20 0
BBX 19 25 3 0
BITMAP
07ff00
07ffc0
0fffc0
0f03e0
0f01e0
0e01e0
0e01e0
1e01e0
1e01c0
1e03c0
1c0780
1c1f00
3ffe00
3ff800
3fe000
380000
380000
780000
780000
780000
700000
700000
f00000
f00000
f00000
ENDCHAR
STARTCHAR Q
ENCODING 81
SWIDTH 777 0
DWIDTH 26 0
BBX 24 32 4 -7
BITMAP
001fc0
007ff0
01fffc
03f07c
07c01e
0f001e
1e000f
3c000f
3c000f
78000f
78000f
70000f
f0000f
f0000e
f0001e
f0001e
f0003c
f0003c
f00078
7800f0
7c03f0
7e0fe0
3fff80
1fff00
03fe00
000f00
0007c0
0003f8
0001ff
0000fe
00003c
000008
ENDCHAR
STARTCHAR R
ENCODING 82
SWIDTH 632 0
DWIDTH 21 0
BBX 19 25 3 0
BITMAP
07ff00
07ffc0
0fffe0
0f03e0
0f01e0
0e01e0
0e01e0
1e01c0
1e01c0
1e0380
1e0700
1c1e00
3ffc00
3ff000
3ff800
3c3800
383c00
781c00
781e00
780e00
700f00
700700
f00780
f00380
f003c0
ENDCHAR
STARTCHAR S
ENCODING 83
SWIDTH 553 0
DWIDTH 19 0
BBX 19 25 2 0
BITMAP
007f80
01ffe0
03ffe0
07c060
0f0000
0f0000
0f0000
0f0000
0f0000
078000
07e000
03f000
00f800
007c00
003e00
001f00
000f00
000700
000700
000f00
400f00
f03e00
fffc00
fff800
1fe000
ENDCHAR
STARTCHAR T
ENCODING 84
SWIDTH 623 0
DWIDTH 21 0
BBX 21 25 5 0
BITMAP
fffff8
fffff8
fffff8
00f000
00f000
00f000
00e000
00e000
01e000
01e000
01e000
01c000
01c000
03c000
03c000
03c000
038000
038000
038000
078000
078000
070000
070000
070000
0f0000
ENDCHAR
STARTCHAR U
ENCODING 85
SWIDTH 693 0
DWIDTH 24 0
BBX 21 25 4 0
BITMAP
1e0038
1e0038
1e0078
1c0070
3c0070
3c0070
3c0070
3c00f0
3800e0
7800e0
7800e0
7800e0
7801e0
7001c0
f001c0
f001c0
f001c0
f00380
f00380
f00780
f80700
7c1e00
7ffe00
3ff800
0fe000
ENDCHAR
STARTCHAR V
ENCODING 86
SWIDTH 687 0
DWIDTH 23 0
BBX 22 25 5 0
BITMAP
f0003c
f00038
f00078
700070
7000f0
7800e0
7801c0
7803c0
380380
380780
3c0700
3c0f00
3c0e00
3c1e00
1c1c00
1e3800
1e3800
1e7000
1ef000
0ee000
0fe000
0fc000
0fc000
0f8000
070000
ENDCHAR
STARTCHAR W
ENCODING 87
SWIDTH 886 0
DWIDTH 30 0
BBX 29 25 6 0
BITMAP
e0070038
e00f0070
e00f0070
e01f00e0
e01f00e0
f01f01c0
f03f01c0
f0370380
f0770380
f0770700
70e70700
70e70e00
71c78e00
71c79c00
71879c00
7387b800
7387b800
7707f800
7707f000
7e07f000
7e03e000
7c03e000
7c03c000
7803c000
78038000
ENDCHAR
STARTCHAR X
ENCODING 88
SWIDTH 620 0
DWIDTH 21 0
BBX 25 25 0 0
BITMAP
03c00780
03c00f00
01e01e00
01e03c00
00e07800
00f07000
0070e000
0079e000
007bc000
003f8000
003f0000
001e0000
001e0000
003f0000
007f0000
00f78000
01e78000
03c38000
0383c000
0701c000
0f01e000
1e01e000
3c00f000
7800f000
f0007800
ENDCHAR
STARTCHAR Y
ENCODING 89
SWIDTH 608 0
DWIDTH 21 0
BBX 20 25 5 0
BITMAP
f000f0
7001e0
7803c0
780380
3c0780
3c0f00
1c1e00
1e3c00
0e3800
0f7800
0ff000
07e000
07c000
03c000
038000
078000
078000
078000
070000
070000
0f0000
0f0000
0e0000
0e0000
1e0000
ENDCHAR
STARTCHAR Z
ENCODING 90
SWIDTH 578 0
DWIDTH 20 0
BBX 22 25 1 0
BITMAP
03fffc
07fffc
07fffc
000078
0000f0
0001e0
0003c0
000780
000f80
001f00
001e00
003c00
007800
00f000
01e000
03e000
07c000
0f8000
0f0000
1e0000
3c0000
780000
ffffc0
ffffc0
ffffc0
ENDCHAR
STARTCHAR bracketleft
ENCODING 91
SWIDTH 325 0
DWIDTH 11 0
BBX 13 32 2 -6
BITMAP
03f8
03f8
03f8
0380
0700
0700
0700
0700
0700
0e00
0e00
0e00
0e00
0e00
1c00
1c00
1c00
1c00
1c00
3800
3800
3800
3800
3800
7000
7000
7000
7000
7000
fe00
fe00
fe00
ENDCHAR
STARTCHAR backslash
ENCODING 92
SWIDTH 482 0
DWIDTH 16 0
BBX 10 32 5 -6
BITMAP
e000
e000
6000
6000
7000
7000
3000
3000
3800
3800
3800
1800
1800
1c00
1c00
0c00
0c00
0e00
0e00
0600
0600
0700
0700
0700
0300
0300
0380
0380
0180
0180
01c0
01c0
ENDCHAR
STARTCHAR bracketright
ENCODING 93
SWIDTH 325 0
DWIDTH 11 0
BBX 13 32 1 -6
BITMAP
03f8
03f8
03f8
0070
0070
0070
0070
0070
00e0
00e0
00e0
00e0
00e0
01c0
01c0
01c0
01c0
01c0
0380
0380
0380
0380
0380
0700
0700
0700
0700
0700
0e00
fe00
fe00
fe00
ENDCHAR
STARTCHAR asciicircum
ENCODING 94
SWIDTH 633 0
DWIDTH 21 0
BBX 20 21 2 4
BITMAP
000400
000400
000e00
001e00
001e00
003f00
007f00
007300
00f300
01e380
01c380
03c180
0781c0
0701c0
0f00c0
1e00c0
1c00e0
3c00e0
780060
700070
f00070
ENDCHAR
STARTCHAR underscore
ENCODING 95
SWIDTH 500 0
DWIDTH 17 0
BBX 14 3 1 -4
BITMAP
fffc
fffc
fffc
ENDCHAR
STARTCHAR grave
ENCODING 96
SWIDTH 572 0
DWIDTH 19 0
BBX 6 5 11 21
BITMAP
f0
70
38
38
1c
ENDCHAR
STARTCHAR a
ENCODING 97
SWIDTH 608 0
DWIDTH 21 0
BBX 18 18 3 0
BITMAP
007fc0
01ffc0
03ffc0
078380
0f0380
1e0380
3c0780
380780
780f00
701f00
f03f00
f07f00
f0ff00
f1fe00
f3ee00
ffce00
7f1e00
3c1e00
ENDCHAR
STARTCHAR b
ENCODING 98
SWIDTH 608 0
DWIDTH 21 0
BBX 18 26 3 0
BITMAP
070000
070000
070000
0f0000
0f0000
0e0000
0e0000
0e0000
1e0f00
1e3f80
1cffc0
1df3c0
1fe1c0
3fc3c0
3f83c0
3f03c0
3e0380
3c0780
780700
780f00
701e00
703c00
707800
fff000
ffe000
ff8000
ENDCHAR
STARTCHAR c
ENCODING 99
SWIDTH 503 0
DWIDTH 17 0
BBX 15 18 3 0
BITMAP
00fe
03fe
07fe
0f82
1e00
3c00
7800
7000
7000
f000
f000
f000
f000
f008
f838
7ff8
3ff0
1f80
ENDCHAR
STARTCHAR d
ENCODING 100
SWIDTH 608 0
DWIDTH 21 0
BBX 20 26 3 0
BITMAP
000070
0000f0
0000e0
0000e0
0000e0
0000e0
0001e0
0001c0
007fc0
01ffc0
03ffc0
07c3c0
0f0380
1e0380
3c0380
380780
780f80
701f00
f03f00
f07f00
f0ff00
f1ff00
f3ee00
ffce00
7f0e00
3c1e00
ENDCHAR
STARTCHAR e
ENCODING 101
SWIDTH 529 0
DWIDTH 18 0
BBX 15 18 3 0
BITMAP
00f8
03fc
0ffe
1f1e
1c0e
381c
781c
7078
71f0
ffc0
fe00
e000
e002
f00c
f83c
7ffc
3ff0
1fc0
ENDCHAR
STARTCHAR f
ENCODING 102
SWIDTH 383 0
DWIDTH 13 0
BBX 17 34 2 -7
BITMAP
001f80
007f80
00ff80
01f080
01c000
03c000
038000
078000
070000
3ff800
3ff800
3ff800
0f0000
0e0000
0e0000
0e0000
0e0000
1e0000
1c0000
1c0000
1c0000
1c0000
3c0000
380000
380000
380000
380000
780000
700000
700000
700000
700000
f00000
e00000
ENDCHAR
STARTCHAR g
ENCODING 103
SWIDTH 608 0
DWIDTH 21 0
BBX 19 25 2 -7
BITMAP
003fe0
00ffe0
01ffe0
03e1c0
0781c0
0f01c0
1e01c0
1e03c0
3c0780
3c0780
380f80
381b80
783f80
387700
38e700
3fc700
3f8700
1e0f00
000e00
000e00
801c00
f03c00
fff800
fff000
1fc000
ENDCHAR
STARTCHAR h
ENCODING 104
SWIDTH 620 0
DWIDTH 21 0
BBX 18 26 3 0
BITMAP
078000
070000
070000
070000
0f0000
0f0000
0e0000
0e0000
0e0f80
1e3fc0
1e7fc0
1cf3c0
1de1c0
1fc3c0
3f83c0
3f8380
3f0380
3e0380
3c0780
780780
780700
700700
700700
700f00
f00f00
e00e00
ENDCHAR
STARTCHAR i
ENCODING 105
SWIDTH 289 0
DWIDTH 10 0
BBX 8 25 3 0
BITMAP
07
0f
0e
00
00
00
00
1e
1c
1c
1c
1c
3c
38
38
38
38
78
78
70
70
70
f0
f0
e0
ENDCHAR
STARTCHAR j
ENCODING 106
SWIDTH 325 0
DWIDTH 11 0
BBX 16 32 -3 -7
BITMAP
0007
000f
000e
0000
0000
0000
0000
001e
001c
001c
001c
001c
003c
003c
0038
0038
0038
0078
0078
0070
0070
0070
00f0
00f0
00e0
00e0
01e0
01c0
c780
ff80
ff00
fc00
ENDCHAR
STARTCHAR k
ENCODING 107
SWIDTH 572 0
DWIDTH 20 0
BBX 18 26 3 0
BITMAP
078000
070000
070000
070000
0f0000
0f0000
0e0000
0e0000
0e03c0
1e0f00
1e1e00
1c3c00
1c7800
1cf000
3de000
3bc000
3f8000
3bc000
39e000
78e000
70f000
707800
703c00
703c00
f01e00
e00f00
ENDCHAR
STARTCHAR l
ENCODING 108
SWIDTH 289 0
DWIDTH 10 0
BBX 9 26 3 0
BITMAP
0380
0780
0700
0700
0700
0700
0f00
0e00
0e00
0e00
1e00
1c00
1c00
1c00
1c00
3c00
3800
3800
3800
7800
7800
7000
7000
7000
f000
e000
ENDCHAR
STARTCHAR m
ENCODING 109
SWIDTH 934 0
DWIDTH 32 0
BBX 28 18 3 0
BITMAP
0e0f01e0
1e3f87f0
1c7f9ff0
1cf7bef0
1de3bc70
1fc7f8f0
3f87f0f0
3f07e0e0
3e07c0e0
3e07c0e0
3c0f81e0
780f01c0
780e01c0
700e01c0
700e01c0
701e03c0
e01e0380
e01c0380
ENDCHAR
STARTCHAR n
ENCODING 110
SWIDTH 620 0
DWIDTH 21 0
BBX 18 18 3 0
BITMAP
0e0f80
1e3fc0
1e7fc0
1cf3c0
1de1c0
1fc3c0
3f83c0
3f8380
3f0380
3e0380
3c0780
7c0780
780700
700700
700700
700f00
f00f00
e00e00
ENDCHAR
STARTCHAR o
ENCODING 111
SWIDTH 566 0
DWIDTH 19 0
BBX 17 18 3 0
BITMAP
00f800
03fe00
0fff00
1f0f00
1c0780
380780
780780
700780
700700
f00700
f00700
f00e00
f01e00
f03c00
f07800
7ff000
3fe000
1f8000
ENDCHAR
STARTCHAR p
ENCODING 112
SWIDTH 608 0
DWIDTH 21 0
BBX 19 25 2 -7
BITMAP
070780
0f1fc0
0e7fe0
0ef9e0
0ef1e0
0fe1e0
0fc1e0
1f81e0
1f01c0
1e03c0
1e0380
1c0780
380f00
381e00
383c00
3ff800
3ff000
7fc000
700000
700000
700000
700000
f00000
f00000
e00000
ENDCHAR
STARTCHAR q
ENCODING 113
SWIDTH 608 0
DWIDTH 21 0
BBX 18 25 3 -7
BITMAP
007fc0
01ffc0
03ffc0
078380
0f0380
1e0380
3c0780
380f80
780f00
701f00
f03f00
f07f00
f0ff00
f1fe00
f3ee00
ffce00
7f0e00
3c1e00
001c00
001c00
001c00
001c00
003c00
003800
003800
ENDCHAR
STARTCHAR r
ENCODING 114
SWIDTH 478 0
DWIDTH 16 0
BBX 15 18 3 0
BITMAP
1e0e
1c3e
1c7c
1ce0
1dc0
3f80
3f80
3f00
3e00
3c00
7c00
7800
7000
7000
7000
f000
f000
e000
ENDCHAR
STARTCHAR s
ENCODING 115
SWIDTH 489 0
DWIDTH 17 0
BBX 14 18 3 0
BITMAP
03f0
0ffc
0ffc
1e0c
1c00
1e00
1e00
0f80
07c0
03e0
01e0
00f0
0070
8070
e0f0
fff0
ffe0
3f80
ENDCHAR
STARTCHAR t
ENCODING 116
SWIDTH 383 0
DWIDTH 13 0
BBX 11 23 4 0
BITMAP
0e00
0e00
0e00
0e00
1e00
ffe0
ffe0
ffe0
1c00
1c00
3c00
3800
3800
3800
3800
7000
7000
7000
7000
7800
7f00
7f00
1e00
ENDCHAR
STARTCHAR u
ENCODING 117
SWIDTH 620 0
DWIDTH 21 0
BBX 17 18 4 0
BITMAP
1c0380
1c0780
380780
380700
380700
380700
380f00
701f00
703e00
703e00
707e00
70fe00
e1fe00
e1fc00
f3dc00
ff9c00
fe1c00
7c3c00
ENDCHAR
STARTCHAR v
ENCODING 118
SWIDTH 545 0
DWIDTH 18 0
BBX 17 18 5 0
BITMAP
e00380
e00700
e00e00
f00e00
701c00
703800
703800
707000
707000
70e000
71c000
79c000
3b8000
3f0000
3f0000
3e0000
3e0000
3c0000
ENDCHAR
STARTCHAR w
ENCODING 119
SWIDTH 795 0
DWIDTH 27 0
BBX 25 18 4 0
BITMAP
e03c0380
e03c0700
e07c0700
e07c0e00
e0fc0e00
f0ec1c00
71ee1c00
71ce3800
73ce7800
738e7000
738ef000
770ee000
770fe000
7e0fc000
7e0fc000
7c0f8000
7c0f8000
380f0000
ENDCHAR
STARTCHAR x
ENCODING 120
SWIDTH 541 0
DWIDTH 18 0
BBX 20 18 1 0
BITMAP
0f00f0
0701e0
0383c0
038380
01c700
01ce00
00fc00
00f800
007000
00f800
01f800
03bc00
071c00
0e1e00
1e0e00
3c0f00
780700
f00780
ENDCHAR
STARTCHAR y
ENCODING 121
SWIDTH 548 0
DWIDTH 19 0
BBX 19 25 3 -7
BITMAP
7801e0
7801c0
3803c0
380780
380700
380f00
3c0e00
3c1c00
1c3c00
1c3800
1c7800
1ef000
1ee000
1fe000
0fc000
0f8000
0f8000
0f0000
0f0000
0e0000
1c0000
1c0000
380000
700000
f00000
ENDCHAR
STARTCHAR z
ENCODING 122
SWIDTH 536 0
DWIDTH 18 0
BBX 18 18 2 0
BITMAP
0fffc0
0fffc0
1fff80
000f80
001f00
003e00
007c00
00f800
01f000
03e000
07c000
0f8000
1f0000
3e0000
7c0000
7fff00
ffff00
fffe00
ENDCHAR
STARTCHAR braceleft
ENCODING 123
SWIDTH 325 0
DWIDTH 11 0
BBX 12 32 3 -6
BITMAP
0030
01f0
03e0
03e0
0780
0700
0700
0700
0700
0700
0700
0700
0e00
0e00
1c00
f800
f000
f000
3800
1800
1800
3800
3800
3800
7000
7000
7000
e000
e000
7c00
7c00
1c00
ENDCHAR
STARTCHAR bar
ENCODING 124
SWIDTH 233 0
DWIDTH 8 0
BBX 9 32 2 -6
BITMAP
0380
0380
0300
0300
0300
0700
0700
0600
0600
0600
0e00
0e00
0c00
0c00
0c00
1c00
1c00
1800
1800
1800
3800
3800
3000
3000
3000
7000
7000
6000
6000
6000
e000
e000
ENDCHAR
STARTCHAR braceright
ENCODING 125
SWIDTH 325 0
DWIDTH 11 0
BBX 12 32 1 -6
BITMAP
0300
03c0
03e0
00e0
00e0
00e0
00e0
01c0
01c0
01c0
0380
0380
0380
01c0
01f0
00e0
03e0
0780
0700
0e00
0e00
0e00
0e00
0e00
0e00
0e00
1e00
3c00
fc00
f800
f000
c000
ENDCHAR
STARTCHAR asciitilde
ENCODING 126
SWIDTH 633 0
DWIDTH 21 0
BBX 21 7 2 6
BITMAP
0f0000
3fc038
3ff030
70f870
607fe0
e01fe0
000780
ENDCHAR
STARTCHAR nobreakspace
ENCODING 160
SWIDTH 316 0
DWIDTH 11 0
BBX 1 1 0 0
BITMAP
00
ENDCHAR
STARTCHAR Aogonek
ENCODING 161
SWIDTH 687 0
DWIDTH 23 0
BBX 22 30 1 -5
BITMAP
000380
0007c0
000fc0
000fc0
001fc0
001dc0
003de0
0039e0
0071e0
0070e0
00e0e0
01e0e0
01c0f0
03c0f0
038070
078070
07fff0
0ffff8
0ffff8
1c0078
3c0078
380038
78003c
70003c
e0003c
003800
006000
00e000
00f400
007c00
ENDCHAR
STARTCHAR breve
ENCODING 162
SWIDTH 566 0
DWIDTH 19 0
BBX 11 5 10 21
BITMAP
c060
c0c0
e1c0
7f80
3e00
ENDCHAR
STARTCHAR Lstroke
ENCODING 163
SWIDTH 545 0
DWIDTH 19 0
BBX 18 25 1 0
BITMAP
01e000
01c000
01c000
01c000
03c000
03c000
038000
038800
07b800
07f800
07f000
0fc000
1f0000
7f0000
ff0000
ef0000
8e0000
0e0000
1e0000
1e0000
1e0000
1c0000
1fffc0
3fffc0
3fffc0
ENDCHAR
STARTCHAR currency
ENCODING 164
SWIDTH 633 0
DWIDTH 21 0
BBX 24 21 1 2
BITMAP
040006
0e000e
1e001f
0f1e3c
07fff8
03fff0
03e1e0
0380e0
0700e0
060060
0600e0
0e00e0
0601c0
0601c0
078780
0fffc0
1dffe0
38f8e0
7000f0
e00078
400020
ENDCHAR
STARTCHAR Lcaron
ENCODING 165
SWIDTH 545 0
DWIDTH 19 0
BBX 15 28 3 0
BITMAP
001e
001e
003e
073e
0f1c
0f1c
0f1c
0e38
0e78
0e70
1e00
1e00
1c00
1c00
1c00
3c00
3c00
3800
3800
3800
7800
7800
7000
7000
7000
fffe
fffe
fffe
ENDCHAR
STARTCHAR Sacute
ENCODING 166
SWIDTH 553 0
DWIDTH 19 0
BBX 20 31 2 0
BITMAP
0000f0
0001c0
000380
000700
000e00
000000
007f80
01ffe0
03ffe0
07c060
0f0000
0f0000
0f0000
0f0000
0f0000
078000
07e000
03f000
00f800
007c00
003e00
001f00
000f00
000700
000700
000f00
400f00
f03e00
fffc00
fff800
1fe000
ENDCHAR
STARTCHAR section
ENCODING 167
SWIDTH 633 0
DWIDTH 21 0
BBX 18 32 3 -7
BITMAP
007f80
01ffc0
03ffc0
0780c0
0f0000
0e0000
0e0000
0e0000
070000
07c000
03e000
0ff800
0e7e00
1c1f00
1c0f00
3c0700
3c0700
1e0700
1f0700
0fce00
07fc00
01f800
007c00
001e00
000e00
000e00
000e00
401e00
f03c00
fff800
fff000
1fc000
ENDCHAR
STARTCHAR diaeresis
ENCODING 168
SWIDTH 566 0
DWIDTH 19 0
BBX 10 3 10 22
BITMAP
61c0
e1c0
e380
ENDCHAR
STARTCHAR Scaron
ENCODING 169
SWIDTH 553 0
DWIDTH 19 0
BBX 20 31 2 0
BITMAP
007070
0038e0
0039c0
001f80
001f00
000000
007f80
01ffe0
03ffe0
07c060
0f0000
0f0000
0f0000
0f0000
0f0000
078000
07e000
03f000
00f800
007c00
003e00
001f00
000f00
000700
000700
000f00
400f00
f03e00
fffc00
fff800
1fe000
ENDCHAR
STARTCHAR Scedilla
ENCODING 170
SWIDTH 553 0
DWIDTH 19 0
BBX 19 33 2 -8
BITMAP
007f80
01ffe0
03ffe0
07c060
0f0000
0f0000
0f0000
0f0000
0f0000
078000
07e000
03f000
00f800
007c00
003e00
001f00
000f00
000700
000700
000f00
400f00
f03e00
fffc00
fff800
1fe000
002000
006000
00e000
007000
003000
007000
01f000
01e000
ENDCHAR
STARTCHAR Tcaron
ENCODING 171
SWIDTH 623 0
DWIDTH 21 0
BBX 21 31 5 0
BITMAP
01c1c0
00e380
00e700
007e00
007c00
000000
fffff8
fffff8
fffff8
00f000
00f000
00f000
00e000
00e000
01e000
01e000
01e000
01c000
01c000
03c000
03c000
03c000
038000
038000
038000
078000
078000
070000
070000
070000
0f0000
ENDCHAR
STARTCHAR Zacute
ENCODING 172
SWIDTH 578 0
DWIDTH 20 0
BBX 22 31 1 0
BITMAP
000078
0000e0
0001c0
000380
000700
000000
03fffc
07fffc
07fffc
000078
0000f0
0001e0
0003c0
000780
000f80
001f00
001e00
003c00
007800
00f000
01e000
03e000
07c000
0f8000
0f0000
1e0000
3c0000
780000
ffffc0
ffffc0
ffffc0
ENDCHAR
STARTCHAR hyphen
ENCODING 173
SWIDTH 313 0
DWIDTH 11 0
BBX 8 3 3 9
BITMAP
ff
ff
ff
ENDCHAR
STARTCHAR Zcaron
ENCODING 174
SWIDTH 578 0
DWIDTH 20 0
BBX 22 31 1 0
BITMAP
003838
001c70
001ce0
000fc0
000f80
000000
03fffc
07fffc
07fffc
000078
0000f0
0001e0
0003c0
000780
000f80
001f00
001e00
003c00
007800
00f000
01e000
03e000
07c000
0f8000
0f0000
1e0000
3c0000
780000
ffffc0
ffffc0
ffffc0
ENDCHAR
STARTCHAR Zabovedot
ENCODING 175
SWIDTH 578 0
DWIDTH 20 0
BBX 22 29 1 0
BITMAP
000380
000780
000700
000000
03fffc
07fffc
07fffc
000078
0000f0
0001e0
0003c0
000780
000f80
001f00
001e00
003c00
007800
00f000
01e000
03e000
07c000
0f8000
0f0000
1e0000
3c0000
780000
ffffc0
ffffc0
ffffc0
ENDCHAR
STARTCHAR degree
ENCODING 176
SWIDTH 269 0
DWIDTH 9 0
BBX 6 6 6 19
BITMAP
78
f8
cc
cc
f8
78
ENDCHAR
STARTCHAR aogonek
ENCODING 177
SWIDTH 608 0
DWIDTH 21 0
BBX 18 23 3 -5
BITMAP
007fc0
01ffc0
03ffc0
078380
0f0380
1e0380
3c0780
380780
780f00
701f00
f03f00
f07f00
f0ff00
f1fe00
f3ee00
ffce00
7f1e00
3c1e00
00e000
018000
038000
03d000
01f000
ENDCHAR
STARTCHAR ogonek
ENCODING 178
SWIDTH 566 0
DWIDTH 19 0
BBX 6 5 6 -6
BITMAP
38
60
e0
f4
7c
ENDCHAR
STARTCHAR lstroke
ENCODING 179
SWIDTH 289 0
DWIDTH 10 0
BBX 13 26 1 0
BITMAP
01e0
01e0
01c0
01c0
01c0
03c0
0380
0380
0388
07b8
07f0
07f0
0fc0
3f00
7f00
ff00
ce00
0e00
0e00
1e00
1c00
1c00
1c00
1c00
3c00
3800
ENDCHAR
STARTCHAR acute
ENCODING 180
SWIDTH 566 0
DWIDTH 19 0
BBX 8 5 12 21
BITMAP
0f
1c
38
70
e0
ENDCHAR
STARTCHAR lcaron
ENCODING 181
SWIDTH 510 0
DWIDTH 17 0
BBX 16 29 3 0
BITMAP
000f
000f
001f
039f
078e
070e
070e
071c
073c
0f38
0e00
0e00
0e00
1e00
1c00
1c00
1c00
1c00
3c00
3800
3800
3800
7800
7800
7000
7000
7000
f000
e000
ENDCHAR
STARTCHAR sacute
ENCODING 182
SWIDTH 489 0
DWIDTH 17 0
BBX 16 24 3 0
BITMAP
000f
001c
0038
0070
00e0
0000
03f0
0ffc
0ffc
1e0c
1c00
1e00
1e00
0f80
07c0
03e0
01e0
00f0
0070
8070
e0f0
fff0
ffe0
3f80
ENDCHAR
STARTCHAR caron
ENCODING 183
SWIDTH 568 0
DWIDTH 19 0
BBX 11 5 10 21
BITMAP
e0e0
71c0
7380
3f00
3e00
ENDCHAR
STARTCHAR cedilla
ENCODING 184
SWIDTH 566 0
DWIDTH 19 0
BBX 5 8 7 -7
BITMAP
10
30
70
38
18
38
f8
f0
ENDCHAR
STARTCHAR scaron
ENCODING 185
SWIDTH 489 0
DWIDTH 17 0
BBX 16 24 3 0
BITMAP
0707
038e
039c
01f8
01f0
0000
03f0
0ffc
0ffc
1e0c
1c00
1e00
1e00
0f80
07c0
03e0
01e0
00f0
0070
8070
e0f0
fff0
ffe0
3f80
ENDCHAR
STARTCHAR scedilla
ENCODING 186
SWIDTH 489 0
DWIDTH 17 0
BBX 14 26 3 -8
BITMAP
03f0
0ffc
0ffc
1e0c
1c00
1e00
1e00
0f80
07c0
03e0
01e0
00f0
0070
8070
e0f0
fff0
ffe0
3f80
0100
0300
0700
0380
0180
0380
0f80
0f00
ENDCHAR
STARTCHAR tcaron
ENCODING 187
SWIDTH 480 0
DWIDTH 16 0
BBX 14 29 4 0
BITMAP
003c
003c
007c
007c
0038
0038
0e38
0e70
0ef0
0ee0
1e00
ffe0
ffe0
ffe0
1c00
1c00
3c00
3800
3800
3800
3800
7000
7000
7000
7000
7800
7f00
7f00
1e00
ENDCHAR
STARTCHAR zacute
ENCODING 188
SWIDTH 536 0
DWIDTH 18 0
BBX 18 24 2 0
BITMAP
000780
000e00
001c00
003800
007000
000000
0fffc0
0fffc0
1fff80
000f80
001f00
003e00
007c00
00f800
01f000
03e000
07c000
0f8000
1f0000
3e0000
7c0000
7fff00
ffff00
fffe00
ENDCHAR
STARTCHAR doubleacute
ENCODING 189
SWIDTH 566 0
DWIDTH 19 0
BBX 11 5 10 21
BITMAP
0ee0
1d80
3b00
7600
ec00
ENDCHAR
STARTCHAR zcaron
ENCODING 190
SWIDTH 536 0
DWIDTH 18 0
BBX 18 24 2 0
BITMAP
038380
01c700
01ce00
00fc00
00f800
000000
0fffc0
0fffc0
1fff80
000f80
001f00
003e00
007c00
00f800
01f000
03e000
07c000
0f8000
1f0000
3e0000
7c0000
7fff00
ffff00
fffe00
ENDCHAR
STARTCHAR zabovedot
ENCODING 191
SWIDTH 536 0
DWIDTH 18 0
BBX 18 22 2 0
BITMAP
003800
007800
007000
000000
0fffc0
0fffc0
1fff80
000f80
001f00
003e00
007c00
00f800
01f000
03e000
07c000
0f8000
1f0000
3e0000
7c0000
7fff00
ffff00
fffe00
ENDCHAR
STARTCHAR Racute
ENCODING 192
SWIDTH 632 0
DWIDTH 21 0
BBX 19 31 3 0
BITMAP
0001e0
000380
000700
000e00
001c00
000000
07ff00
07ffc0
0fffe0
0f03e0
0f01e0
0e01e0
0e01e0
1e01c0
1e01c0
1e0380
1e0700
1c1e00
3ffc00
3ff000
3ff800
3c3800
383c00
781c00
781e00
780e00
700f00
700700
f00780
f00380
f003c0
ENDCHAR
STARTCHAR Aacute
ENCODING 193
SWIDTH 687 0
DWIDTH 23 0
BBX 22 32 1 0
BITMAP
000078
0000e0
0001c0
000380
000700
000000
000000
000380
0007c0
000fc0
000fc0
001fc0
001dc0
003de0
0039e0
0071e0
0070e0
00e0e0
01e0e0
01c0f0
03c0f0
038070
078070
07fff0
0ffff8
0ffff8
1c0078
3c0078
380038
78003c
70003c
e0003c
ENDCHAR
STARTCHAR Acircumflex
ENCODING 194
SWIDTH 687 0
DWIDTH 23 0
BBX 22 32 1 0
BITMAP
0001e0
0003e0
000670
000c70
003838
000000
000000
000380
0007c0
000fc0
000fc0
001fc0
001dc0
003de0
0039e0
0071e0
0070e0
00e0e0
01e0e0
01c0f0
03c0f0
038070
078070
07fff0
0ffff8
0ffff8
1c0078
3c0078
380038
78003c
70003c
e0003c
ENDCHAR
STARTCHAR Abreve
ENCODING 195
SWIDTH 687 0
DWIDTH 23 0
BBX 22 31 1 0
BITMAP
00180c
001818
001c38
000ff0
0007c0
000000
000380
0007c0
000fc0
000fc0
001fc0
001dc0
003de0
0039e0
0071e0
0070e0
00e0e0
01e0e0
01c0f0
03c0f0
038070
078070
07fff0
0ffff8
0ffff8
1c0078
3c0078
380038
78003c
70003c
e0003c
ENDCHAR
STARTCHAR Adiaeresis
ENCODING 196
SWIDTH 687 0
DWIDTH 23 0
BBX 22 30 1 0
BITMAP
000c38
001c38
001c70
000000
000000
000380
0007c0
000fc0
000fc0
001fc0
001dc0
003de0
0039e0
0071e0
0070e0
00e0e0
01e0e0
01c0f0
03c0f0
038070
078070
07fff0
0ffff8
0ffff8
1c0078
3c0078
380038
78003c
70003c
e0003c
ENDCHAR
STARTCHAR Lacute
ENCODING 197
SWIDTH 545 0
DWIDTH 19 0
BBX 15 31 3 0
BITMAP
0078
00e0
01c0
0380
0700
0000
0700
0f00
0f00
0f00
0e00
0e00
0e00
1e00
1e00
1c00
1c00
1c00
3c00
3c00
3800
3800
3800
7800
7800
7000
7000
7000
fffe
fffe
fffe
ENDCHAR
STARTCHAR Cacute
ENCODING 198
SWIDTH 679 0
DWIDTH 23 0
BBX 22 31 4 0
BITMAP
00003c
000070
0000e0
0001c0
000380
000000
001ff0
007ffc
01fffc
03e00c
0fc000
0f0000
1e0000
3e0000
3c0000
780000
780000
700000
f00000
f00000
f00000
f00000
f00000
f00000
f00000
f80000
780040
7e03c0
3fffc0
1fff00
03f800
ENDCHAR
STARTCHAR Ccedilla
ENCODING 199
SWIDTH 679 0
DWIDTH 23 0
BBX 22 32 4 -7
BITMAP
001ff0
007ffc
01fffc
03e00c
0fc000
0f0000
1e0000
3e0000
3c0000
780000
780000
700000
f00000
f00000
f00000
f00000
f00000
f00000
f00000
f80000
780040
7e03c0
3fffc0
1fff00
03f800
018000
038000
01c000
00c000
01c000
07c000
078000
ENDCHAR
STARTCHAR Ccaron
ENCODING 200
SWIDTH 679 0
DWIDTH 23 0
BBX 22 31 4 0
BITMAP
001c1c
000e38
000e70
0007e0
0007c0
000000
001ff0
007ffc
01fffc
03e00c
0fc000
0f0000
1e0000
3e0000
3c0000
780000
780000
700000
f00000
f00000
f00000
f00000
f00000
f00000
f00000
f80000
780040
7e03c0
3fffc0
1fff00
03f800
ENDCHAR
STARTCHAR Eacute
ENCODING 201
SWIDTH 547 0
DWIDTH 19 0
BBX 19 32 3 0
BITMAP
000780
000e00
001c00
003800
007000
000000
000000
07ffe0
07ffe0
0fffe0
0f0000
0f0000
0f0000
0e0000
1e0000
1e0000
1e0000
1e0000
1ffe00
3ffe00
3ffe00
3c0000
3c0000
380000
780000
780000
780000
700000
700000
fffe00
fffe00
fffe00
ENDCHAR
STARTCHAR Eogonek
ENCODING 202
SWIDTH 547 0
DWIDTH 19 0
BBX 19 30 3 -5
BITMAP
07ffe0
07ffe0
0fffe0
0f0000
0f0000
0f0000
0e0000
1e0000
1e0000
1e0000
1e0000
1ffe00
3ffe00
3ffe00
3c0000
3c0000
380000
780000
780000
780000
700000
700000
fffe00
fffe00
fffe00
007000
00c000
01c000
01e800
00f800
ENDCHAR
STARTCHAR Ediaeresis
ENCODING 203
SWIDTH 547 0
DWIDTH 19 0
BBX 19 30 3 0
BITMAP
018700
038700
038e00
000000
000000
07ffe0
07ffe0
0fffe0
0f0000
0f0000
0f0000
0e0000
1e0000
1e0000
1e0000
1e0000
1ffe00
3ffe00
3ffe00
3c0000
3c0000
380000
780000
780000
780000
700000
700000
fffe00
fffe00
fffe00
ENDCHAR
STARTCHAR Ecaron
ENCODING 204
SWIDTH 547 0
DWIDTH 19 0
BBX 19 31 3 0
BITMAP
00e0e0
0071c0
007380
003f00
003e00
000000
07ffe0
07ffe0
0fffe0
0f0000
0f0000
0f0000
0e0000
1e0000
1e0000
1e0000
1e0000
1ffe00
3ffe00
3ffe00
3c0000
3c0000
380000
780000
780000
780000
700000
700000
fffe00
fffe00
fffe00
ENDCHAR
STARTCHAR Iacute
ENCODING 205
SWIDTH 289 0
DWIDTH 10 0
BBX 12 32 3 0
BITMAP
00f0
01c0
0380
0700
0e00
0000
0000
0f00
0f00
0f00
0e00
0e00
0e00
1e00
1e00
1c00
1c00
1c00
3c00
3c00
3c00
3800
3800
3800
7800
7800
7000
7000
7000
f000
f000
f000
ENDCHAR
STARTCHAR Icircumflex
ENCODING 206
SWIDTH 289 0
DWIDTH 10 0
BBX 12 32 3 0
BITMAP
03c0
07c0
0ce0
18e0
7070
0000
0000
0f00
0f00
0f00
0e00
0e00
0e00
1e00
1e00
1c00
1c00
1c00
3c00
3c00
3c00
3800
3800
3800
7800
7800
7000
7000
7000
f000
f000
f000
ENDCHAR
STARTCHAR Dcaron
ENCODING 207
SWIDTH 743 0
DWIDTH 25 0
BBX 23 31 3 0
BITMAP
007070
0038e0
0039c0
001f80
001f00
000000
07ffc0
07fff0
0ffff8
0f01fc
0e007c
0e003e
0e001e
1e001e
1e001e
1c001e
1c001e
1c001e
3c001e
3c001c
38003c
38003c
380078
780078
7800f0
7001e0
7003e0
700fc0
ffff80
fffe00
fff000
ENDCHAR
STARTCHAR Dstroke
ENCODING 208
SWIDTH 743 0
DWIDTH 25 0
BBX 25 25 2 0
BITMAP
03fff000
03fffc00
03fffe00
03807f00
07801f00
07800f80
07800780
07000780
07000780
0f000780
0f000780
fff80780
fff80780
fff80700
0e000f00
1e000f00
1e001e00
1c001e00
1c003c00
1c007800
3c00f000
3c03e000
3fffc000
3fff8000
7ffc0000
ENDCHAR
STARTCHAR Nacute
ENCODING 209
SWIDTH 741 0
DWIDTH 25 0
BBX 24 31 3 0
BITMAP
000078
0000e0
0001c0
000380
000700
000000
078007
078007
0f8007
0fc00e
0fc00e
0fe00e
0ee00e
1cf00e
1cf01c
1c781c
1c781c
1c381c
383c1c
381c38
381e38
381e38
380f38
700f38
700770
7007f0
7003f0
7003f0
e001f0
e001e0
e001e0
ENDCHAR
STARTCHAR Ncaron
ENCODING 210
SWIDTH 741 0
DWIDTH 25 0
BBX 24 31 3 0
BITMAP
003838
001c70
001ce0
000fc0
000f80
000000
078007
078007
0f8007
0fc00e
0fc00e
0fe00e
0ee00e
1cf00e
1cf01c
1c781c
1c781c
1c381c
383c1c
381c38
381e38
381e38
380f38
700f38
700770
7007f0
7003f0
7003f0
e001f0
e001e0
e001e0
ENDCHAR
STARTCHAR Oacute
ENCODING 211
SWIDTH 777 0
DWIDTH 26 0
BBX 24 32 4 0
BITMAP
0000f0
0001c0
000380
000700
000e00
000000
000000
001fc0
007ff8
01fffc
03f07e
07c01e
0f001e
1e000f
3c000f
3c000f
78000f
78000f
70000f
f0000f
f0000e
f0001e
f0001e
f0003c
f0003c
f00078
7800f0
7c03e0
7e0fc0
3fff80
1ffe00
03f800
ENDCHAR
STARTCHAR Ocircumflex
ENCODING 212
SWIDTH 777 0
DWIDTH 26 0
BBX 24 32 4 0
BITMAP
0003c0
0007c0
000ce0
0018e0
007070
000000
000000
001fc0
007ff8
01fffc
03f07e
07c01e
0f001e
1e000f
3c000f
3c000f
78000f
78000f
70000f
f0000f
f0000e
f0001e
f0001e
f0003c
f0003c
f00078
7800f0
7c03e0
7e0fc0
3fff80
1ffe00
03f800
ENDCHAR
STARTCHAR Odoubleacute
ENCODING 213
SWIDTH 777 0
DWIDTH 26 0
BBX 24 31 4 0
BITMAP
000077
0000ec
0001d8
0003b0
000760
000000
001fc0
007ff8
01fffc
03f07e
07c01e
0f001e
1e000f
3c000f
3c000f
78000f
78000f
70000f
f0000f
f0000e
f0001e
f0001e
f0003c
f0003c
f00078
7800f0
7c03e0
7e0fc0
3fff80
1ffe00
03f800
ENDCHAR
STARTCHAR Odiaeresis
ENCODING 214
SWIDTH 777 0
DWIDTH 26 0
BBX 24 30 4 0
BITMAP
001870
003870
0038e0
000000
000000
001fc0
007ff8
01fffc
03f07e
07c01e
0f001e
1e000f
3c000f
3c000f
78000f
78000f
70000f
f0000f
f0000e
f0001e
f0001e
f0003c
f0003c
f00078
7800f0
7c03e0
7e0fc0
3fff80
1ffe00
03f800
ENDCHAR
STARTCHAR multiply
ENCODING 215
SWIDTH 633 0
DWIDTH 21 0
BBX 23 21 1 0
BITMAP
040004
1c000e
0e001c
070038
0780f0
0381e0
01c3c0
00e780
007f00
007e00
003800
007c00
01fe00
03cf00
078700
0f0780
1e03c0
3801e0
7000f0
e000f0
400040
ENDCHAR
STARTCHAR Rcaron
ENCODING 216
SWIDTH 632 0
DWIDTH 21 0
BBX 19 31 3 0
BITMAP
00e0e0
0071c0
007380
003f00
003e00
000000
07ff00
07ffc0
0fffe0
0f03e0
0f01e0
0e01e0
0e01e0
1e01c0
1e01c0
1e0380
1e0700
1c1e00
3ffc00
3ff000
3ff800
3c3800
383c00
781c00
781e00
780e00
700f00
700700
f00780
f00380
f003c0
ENDCHAR
STARTCHAR Uring
ENCODING 217
SWIDTH 693 0
DWIDTH 24 0
BBX 21 31 4 0
BITMAP
001c00
003600
002200
003600
001c00
000000
1e0038
1e0038
1e0078
1c0070
3c0070
3c0070
3c0070
3c00f0
3800e0
7800e0
7800e0
7800e0
7801e0
7001c0
f001c0
f001c0
f001c0
f00380
f00380
f00780
f80700
7c1e00
7ffe00
3ff800
0fe000
ENDCHAR
STARTCHAR Uacute
ENCODING 218
SWIDTH 693 0
DWIDTH 24 0
BBX 21 32 4 0
BITMAP
0003c0
000700
000e00
001c00
003800
000000
000000
1e0038
1e0038
1e0078
1c0070
3c0070
3c0070
3c0070
3c00f0
3800e0
7800e0
7800e0
7800e0
7801e0
7001c0
f001c0
f001c0
f001c0
f00380
f00380
f00780
f80700
7c1e00
7ffe00
3ff800
0fe000
ENDCHAR
STARTCHAR Udoubleacute
ENCODING 219
SWIDTH 693 0
DWIDTH 24 0
BBX 21 31 4 0
BITMAP
0003b8
000760
000ec0
001d80
003b00
000000
1e0038
1e0038
1e0078
1c0070
3c0070
3c0070
3c0070
3c00f0
3800e0
7800e0
7800e0
7800e0
7801e0
7001c0
f001c0
f001c0
f001c0
f00380
f00380
f00780
f80700
7c1e00
7ffe00
3ff800
0fe000
ENDCHAR
STARTCHAR Udiaeresis
ENCODING 220
SWIDTH 693 0
DWIDTH 24 0
BBX 21 30 4 0
BITMAP
00c380
01c380
01c700
000000
000000
1e0038
1e0038
1e0078
1c0070
3c0070
3c0070
3c0070
3c00f0
3800e0
7800e0
7800e0
7800e0
7801e0
7001c0
f001c0
f001c0
f001c0
f00380
f00380
f00780
f80700
7c1e00
7ffe00
3ff800
0fe000
ENDCHAR
STARTCHAR Yacute
ENCODING 221
SWIDTH 608 0
DWIDTH 21 0
BBX 20 32 5 0
BITMAP
000f00
001c00
003800
007000
00e000
000000
000000
f000f0
7001e0
7803c0
780380
3c0780
3c0f00
1c1e00
1e3c00
0e3800
0f7800
0ff000
07e000
07c000
03c000
038000
078000
078000
078000
070000
070000
0f0000
0f0000
0e0000
0e0000
1e0000
ENDCHAR
STARTCHAR Tcedilla
ENCODING 222
SWIDTH 623 0
DWIDTH 21 0
BBX 21 33 5 -8
BITMAP
fffff8
fffff8
fffff8
00f000
00f000
00f000
00e000
00e000
01e000
01e000
01e000
01c000
01c000
03c000
03c000
03c000
038000
038000
038000
078000
078000
070000
070000
070000
0f0000
001000
003000
007000
003800
001800
003800
00f800
00f000
ENDCHAR
STARTCHAR ssharp
ENCODING 223
SWIDTH 595 0
DWIDTH 20 0
BBX 18 34 2 -7
BITMAP
003e00
00ff00
01ff80
03c780
038380
038380
078780
070700
071e00
073c00
0f7800
0f7000
0e7000
0e7800
0e7800
0e3e00
1e1f00
1c0f80
1c0780
1c03c0
1c01c0
3c01c0
3801c0
3883c0
38ff80
39ff00
78fc00
780000
700000
700000
700000
f00000
f00000
e00000
ENDCHAR
STARTCHAR racute
ENCODING 224
SWIDTH 478 0
DWIDTH 16 0
BBX 16 24 3 0
BITMAP
000f
001c
0038
0070
00e0
0000
1e0e
1c3e
1c7c
1ce0
1dc0
3f80
3f80
3f00
3e00
3c00
7c00
7800
7000
7000
7000
f000
f000
e000
ENDCHAR
STARTCHAR aacute
ENCODING 225
SWIDTH 608 0
DWIDTH 21 0
BBX 18 25 3 0
BITMAP
0003c0
000700
000e00
001c00
003800
000000
000000
007fc0
01ffc0
03ffc0
078380
0f0380
1e0380
3c0780
380780
780f00
701f00
f03f00
f07f00
f0ff00
f1fe00
f3ee00
ffce00
7f1e00
3c1e00
ENDCHAR
STARTCHAR acircumflex
ENCODING 226
SWIDTH 608 0
DWIDTH 21 0
BBX 18 25 3 0
BITMAP
000f00
001f00
003380
006380
01c1c0
000000
000000
007fc0
01ffc0
03ffc0
078380
0f0380
1e0380
3c0780
380780
780f00
701f00
f03f00
f07f00
f0ff00
f1fe00
f3ee00
ffce00
7f1e00
3c1e00
ENDCHAR
STARTCHAR abreve
ENCODING 227
SWIDTH 608 0
DWIDTH 21 0
BBX 19 24 3 0
BITMAP
00c060
00c0c0
00e1c0
007f80
003e00
000000
007fc0
01ffc0
03ffc0
078380
0f0380
1e0380
3c0780
380780
780f00
701f00
f03f00
f07f00
f0ff00
f1fe00
f3ee00
ffce00
7f1e00
3c1e00
ENDCHAR
STARTCHAR adiaeresis
ENCODING 228
SWIDTH 608 0
DWIDTH 21 0
BBX 18 23 3 0
BITMAP
00c380
01c380
01c700
000000
000000
007fc0
01ffc0
03ffc0
078380
0f0380
1e0380
3c0780
380780
780f00
701f00
f03f00
f07f00
f0ff00
f1fe00
f3ee00
ffce00
7f1e00
3c1e00
ENDCHAR
STARTCHAR lacute
ENCODING 229
SWIDTH 289 0
DWIDTH 10 0
BBX 14 32 3 0
BITMAP
003c
0070
00e0
01c0
0380
0000
0380
0780
0700
0700
0700
0700
0f00
0e00
0e00
0e00
1e00
1c00
1c00
1c00
1c00
3c00
3800
3800
3800
7800
7800
7000
7000
7000
f000
e000
ENDCHAR
STARTCHAR cacute
ENCODING 230
SWIDTH 503 0
DWIDTH 17 0
BBX 17 24 3 0
BITMAP
000780
000e00
001c00
003800
007000
000000
00fe00
03fe00
07fe00
0f8200
1e0000
3c0000
780000
700000
700000
f00000
f00000
f00000
f00000
f00800
f83800
7ff800
3ff000
1f8000
ENDCHAR
STARTCHAR ccedilla
ENCODING 231
SWIDTH 503 0
DWIDTH 17 0
BBX 15 25 3 -7
BITMAP
00fe
03fe
07fe
0f82
1e00
3c00
7800
7000
7000
f000
f000
f000
f000
f008
f838
7ff8
3ff0
1f80
0600
0e00
0700
0300
0700
1f00
1e00
ENDCHAR
STARTCHAR ccaron
ENCODING 232
SWIDTH 503 0
DWIDTH 17 0
BBX 17 24 3 0
BITMAP
038380
01c700
01ce00
00fc00
00f800
000000
00fe00
03fe00
07fe00
0f8200
1e0000
3c0000
780000
700000
700000
f00000
f00000
f00000
f00000
f00800
f83800
7ff800
3ff000
1f8000
ENDCHAR
STARTCHAR eacute
ENCODING 233
SWIDTH 529 0
DWIDTH 18 0
BBX 16 25 3 0
BITMAP
000f
001c
0038
0070
00e0
0000
0000
00f8
03fc
0ffe
1f1e
1c0e
381c
781c
7078
71f0
ffc0
fe00
e000
e002
f00c
f83c
7ffc
3ff0
1fc0
ENDCHAR
STARTCHAR eogonek
ENCODING 234
SWIDTH 529 0
DWIDTH 18 0
BBX 15 23 3 -5
BITMAP
00f8
03fc
0ffe
1f1e
1c0e
381c
781c
7078
71f0
ffc0
fe00
e000
e002
f00c
f83c
7ffc
3ff0
1fc0
01c0
0300
0700
07a0
03e0
ENDCHAR
STARTCHAR ediaeresis
ENCODING 235
SWIDTH 529 0
DWIDTH 18 0
BBX 16 23 3 0
BITMAP
0187
0387
038e
0000
0000
00f8
03fc
0ffe
1f1e
1c0e
381c
781c
7078
71f0
ffc0
fe00
e000
e002
f00c
f83c
7ffc
3ff0
1fc0
ENDCHAR
STARTCHAR ecaron
ENCODING 236
SWIDTH 529 0
DWIDTH 18 0
BBX 16 24 3 0
BITMAP
0707
038e
039c
01f8
01f0
0000
00f8
03fc
0ffe
1f1e
1c0e
381c
781c
7078
71f0
ffc0
fe00
e000
e002
f00c
f83c
7ffc
3ff0
1fc0
ENDCHAR
STARTCHAR iacute
ENCODING 237
SWIDTH 289 0
DWIDTH 10 0
BBX 12 25 3 0
BITMAP
00f0
01c0
0380
0700
0e00
0000
0000
0e00
1e00
1c00
1c00
1c00
1c00
3c00
3800
3800
3800
3800
7800
7000
7000
7000
7000
f000
e000
ENDCHAR
STARTCHAR icircumflex
ENCODING 238
SWIDTH 289 0
DWIDTH 10 0
BBX 12 25 3 0
BITMAP
03c0
07c0
0ce0
18e0
7070
0000
0000
0e00
1e00
1c00
1c00
1c00
1c00
3c00
3800
3800
3800
3800
7800
7000
7000
7000
7000
f000
e000
ENDCHAR
STARTCHAR dcaron
ENCODING 239
SWIDTH 840 0
DWIDTH 28 0
BBX 27 29 3 0
BITMAP
000001e0
000001e0
000003e0
000073e0
0000f1c0
0000e1c0
0000e1c0
0000e380
0000e780
0001e700
0001c000
007fc000
01ffc000
03ffc000
07c3c000
0f038000
1e038000
3c038000
38078000
780f8000
701f0000
f03f0000
f07f0000
f0ff0000
f1ff0000
f3ee0000
ffce0000
7f0e0000
3c1e0000
ENDCHAR
STARTCHAR dstroke
ENCODING 240
SWIDTH 690 0
DWIDTH 23 0
BBX 22 26 3 0
BITMAP
000070
0000f0
0000e0
0000e0
0007fc
0007fc
0001e0
0001c0
007fc0
01ffc0
03ffc0
07c3c0
0f0380
1e0380
3c0380
380780
780f80
701f00
f03f00
f07f00
f0ff00
f1ff00
f3ee00
ffce00
7f0e00
3c1e00
ENDCHAR
STARTCHAR nacute
ENCODING 241
SWIDTH 620 0
DWIDTH 21 0
BBX 18 24 3 0
BITMAP
000780
000e00
001c00
003800
007000
000000
0e0f80
1e3fc0
1e7fc0
1cf3c0
1de1c0
1fc3c0
3f83c0
3f8380
3f0380
3e0380
3c0780
7c0780
780700
700700
700700
700f00
f00f00
e00e00
ENDCHAR
STARTCHAR ncaron
ENCODING 242
SWIDTH 620 0
DWIDTH 21 0
BBX 18 24 3 0
BITMAP
038380
01c700
01ce00
00fc00
00f800
000000
0e0f80
1e3fc0
1e7fc0
1cf3c0
1de1c0
1fc3c0
3f83c0
3f8380
3f0380
3e0380
3c0780
7c0780
780700
700700
700700
700f00
f00f00
e00e00
ENDCHAR
STARTCHAR oacute
ENCODING 243
SWIDTH 566 0
DWIDTH 19 0
BBX 17 25 3 0
BITMAP
000780
000e00
001c00
003800
007000
000000
000000
00f800
03fe00
0fff00
1f0f00
1c0780
380780
780780
700780
700700
f00700
f00700
f00e00
f01e00
f03c00
f07800
7ff000
3fe000
1f8000
ENDCHAR
STARTCHAR ocircumflex
ENCODING 244
SWIDTH 566 0
DWIDTH 19 0
BBX 17 25 3 0
BITMAP
001e00
003e00
006700
00c700
038380
000000
000000
00f800
03fe00
0fff00
1f0f00
1c0780
380780
780780
700780
700700
f00700
f00700
f00e00
f01e00
f03c00
f07800
7ff000
3fe000
1f8000
ENDCHAR
STARTCHAR odoubleacute
ENCODING 245
SWIDTH 566 0
DWIDTH 19 0
BBX 19 24 3 0
BITMAP
000ee0
001d80
003b00
007600
00ec00
000000
00f800
03fe00
0fff00
1f0f00
1c0780
380780
780780
700780
700700
f00700
f00700
f00e00
f01e00
f03c00
f07800
7ff000
3fe000
1f8000
ENDCHAR
STARTCHAR odiaeresis
ENCODING 246
SWIDTH 566 0
DWIDTH 19 0
BBX 17 23 3 0
BITMAP
00c380
01c380
01c700
000000
000000
00f800
03fe00
0fff00
1f0f00
1c0780
380780
780780
700780
700700
f00700
f00700
f00e00
f01e00
f03c00
f07800
7ff000
3fe000
1f8000
ENDCHAR
STARTCHAR division
ENCODING 247
SWIDTH 633 0
DWIDTH 21 0
BBX 20 17 3 1
BITMAP
003c00
007800
007800
000000
000000
000000
000000
fffff0
fffff0
fffff0
000000
000000
000000
000000
01e000
01e000
03c000
ENDCHAR
STARTCHAR rcaron
ENCODING 248
SWIDTH 478 0
DWIDTH 16 0
BBX 16 24 3 0
BITMAP
0707
038e
039c
01f8
01f0
0000
1e0e
1c3e
1c7c
1ce0
1dc0
3f80
3f80
3f00
3e00
3c00
7c00
7800
7000
7000
7000
f000
f000
e000
ENDCHAR
STARTCHAR uring
ENCODING 249
SWIDTH 620 0
DWIDTH 21 0
BBX 17 24 4 0
BITMAP
00e000
01b000
011000
01b000
00e000
000000
1c0380
1c0780
380780
380700
380700
380700
380f00
701f00
703e00
703e00
707e00
70fe00
e1fe00
e1fc00
f3dc00
ff9c00
fe1c00
7c3c00
ENDCHAR
STARTCHAR uacute
ENCODING 250
SWIDTH 620 0
DWIDTH 21 0
BBX 17 25 4 0
BITMAP
000780
000e00
001c00
003800
007000
000000
000000
1c0380
1c0780
380780
380700
380700
380700
380f00
701f00
703e00
703e00
707e00
70fe00
e1fe00
e1fc00
f3dc00
ff9c00
fe1c00
7c3c00
ENDCHAR
STARTCHAR udoubleacute
ENCODING 251
SWIDTH 620 0
DWIDTH 21 0
BBX 18 24 4 0
BITMAP
001dc0
003b00
007600
00ec00
01d800
000000
1c0380
1c0780
380780
380700
380700
380700
380f00
701f00
703e00
703e00
707e00
70fe00
e1fe00
e1fc00
f3dc00
ff9c00
fe1c00
7c3c00
ENDCHAR
STARTCHAR udiaeresis
ENCODING 252
SWIDTH 620 0
DWIDTH 21 0
BBX 17 23 4 0
BITMAP
018700
038700
038e00
000000
000000
1c0380
1c0780
380780
380700
380700
380700
380f00
701f00
703e00
703e00
707e00
70fe00
e1fe00
e1fc00
f3dc00
ff9c00
fe1c00
7c3c00
ENDCHAR
STARTCHAR yacute
ENCODING 253
SWIDTH 548 0
DWIDTH 19 0
BBX 19 32 3 -7
BITMAP
000780
000e00
001c00
003800
007000
000000
000000
7801e0
7801c0
3803c0
380780
380700
380f00
3c0e00
3c1c00
1c3c00
1c3800
1c7800
1ef000
1ee000
1fe000
0fc000
0f8000
0f8000
0f0000
0f0000
0e0000
1c0000
1c0000
380000
700000
f00000
ENDCHAR
STARTCHAR tcedilla
ENCODING 254
SWIDTH 383 0
DWIDTH 13 0
BBX 11 31 4 -8
BITMAP
0e00
0e00
0e00
0e00
1e00
ffe0
ffe0
ffe0
1c00
1c00
3c00
3800
3800
3800
3800
7000
7000
7000
7000
7800
7f00
7f00
1e00
0200
0600
0e00
0700
0300
0700
1f00
1e00
ENDCHAR
STARTCHAR abovedot
ENCODING 255
SWIDTH 566 0
DWIDTH 19 0
BBX 4 3 13 22
BITMAP
70
f0
e0
ENDCHAR
ENDFONT
